<?xml version="1.0" encoding="UTF-8"?>
<svg viewBox="0 0 732.96021 560.48987" xmlns="http://www.w3.org/2000/svg" xmlns:xlink="http://www.w3.org/1999/xlink">
 <defs>
  <filter id="j">
   <feGaussianBlur stdDeviation="7.85277"/>
  </filter>
  <filter id="f" x="-.08345" y="-.51397" width="1.1669" height="2.0279">
   <feGaussianBlur stdDeviation="19.68109"/>
  </filter>
  <filter id="d" x="-.16692" y="-.17727" width="1.3338" height="1.3545">
   <feGaussianBlur stdDeviation="1.28652"/>
  </filter>
  <filter id="c" x="-.14606" y="-.15511" width="1.2921" height="1.3102">
   <feGaussianBlur stdDeviation="1.1257"/>
  </filter>
  <linearGradient id="e">
   <stop stop-color="#ffc800" offset="0"/>
   <stop stop-color="#c57101" offset="1"/>
  </linearGradient>
  <linearGradient id="h" x1=".4677" x2=".47577" y1=".0644" y2="1.3017">
   <stop stop-color="#570000" offset="0"/>
   <stop stop-color="#f00" offset="1"/>
  </linearGradient>
  <linearGradient id="a" x1=".01512" x2=".80325" y1=".19386" y2="1.3098">
   <stop stop-color="#fff" offset="0"/>
   <stop stop-color="#fff" stop-opacity="0" offset="1"/>
  </linearGradient>
  <linearGradient id="i" x1=".40819" x2=".42499" y1="-.11434" y2=".39789" xlink:href="#e"/>
  <linearGradient id="b" x1=".52617" x2=".47371" y1="-.00524" y2="1.0053" xlink:href="#e"/>
  <radialGradient id="g" cx="390" cy="515.22" r="285.71" gradientTransform="matrix(.65372 -1.555 .30318 1.061 -73.18 291.82)" gradientUnits="userSpaceOnUse">
   <stop stop-color="#570000" offset="0"/>
   <stop stop-color="#ce0000" offset="1"/>
  </radialGradient>
 </defs>
 <g transform="rotate(-.88741 396.79 282)">
  <path d="m492.44 47.161a160.41 59.621 0 1 1 -320.83 33.589 160.41 59.621 0 1 1 320.83 -33.589z" fill="url(#i)" opacity=".8488"/>
  <path d="m624.93 52.975a282.9 65.458 0 1 1 -565.8 87.174 282.9 65.458 0 1 1 565.8 -87.174z" fill="url(#g)"/>
  <path d="m624.93 59.195a282.9 64.269 0 1 1 -565.8 85.59 282.9 64.269 0 1 1 565.8 -85.59z" fill="#570000" opacity=".74227"/>
  <path d="m626.9 64.758a282.87 60.109 0 1 1 -565.73 80.466 282.87 60.109 0 1 1 565.73 -80.466z" fill="url(#h)"/>
  <path d="m484.45 103.22a135.05 28.699 0 1 1 -270.11 38.419 135.05 28.699 0 1 1 270.11 -38.419z" fill="#b3b3b3" stroke="#000" stroke-width="5.2894"/>
  <path d="m463.31 111.05a111.06 23.601 0 1 1 -222.12 31.593 111.06 23.601 0 1 1 222.12 -31.593z" fill="#fff" stroke="#000" stroke-width="5.2894"/>
  <path d="m462.17 109.62a111.06 23.601 0 1 1 -222.12 31.593 111.06 23.601 0 1 1 222.12 -31.593z" fill="#fff" filter="url(#f)"/>
  <path d="m460.74 110.19a111.06 23.601 0 1 1 -222.12 31.593 111.06 23.601 0 1 1 222.12 -31.593z" fill="#fff" filter="url(#f)"/>
  <path d="m331.41 56.39a9.2361 4.618 0 1 1 -18.472 1.9174 9.2361 4.618 0 1 1 18.472 -1.9174z" filter="url(#d)"/>
  <path d="m331.41 57.104a9.2361 4.618 0 1 1 -18.472 1.9174 9.2361 4.618 0 1 1 18.472 -1.9174z" fill="url(#b)"/>
  <path d="m331.41 57.104a9.2361 4.618 0 1 1 -18.472 1.9174 9.2361 4.618 0 1 1 18.472 -1.9174z" fill="url(#a)" filter="url(#c)"/>
  <g transform="matrix(.78886 0 0 .78886 178.4 116.49)">
   <path d="m313.07-84.801a9.2361 4.618 0 1 1 -18.472 1.9174 9.2361 4.618 0 1 1 18.472 -1.9174z" filter="url(#d)"/>
   <path d="m313.07-84.087a9.2361 4.618 0 1 1 -18.472 1.9174 9.2361 4.618 0 1 1 18.472 -1.9174z" fill="url(#b)"/>
   <path d="m313.07-84.087a9.2361 4.618 0 1 1 -18.472 1.9174 9.2361 4.618 0 1 1 18.472 -1.9174z" fill="url(#a)" filter="url(#c)"/>
  </g>
  <g transform="matrix(.72969 0 0 .72969 283.11 154.82)">
   <path d="m306.02-139.02a9.2361 4.618 0 1 1 -18.472 1.9174 9.2361 4.618 0 1 1 18.472 -1.9174z" filter="url(#d)"/>
   <path d="m306.02-138.31a9.2361 4.618 0 1 1 -18.472 1.9174 9.2361 4.618 0 1 1 18.472 -1.9174z" fill="url(#b)"/>
   <path d="m306.02-138.31a9.2361 4.618 0 1 1 -18.472 1.9174 9.2361 4.618 0 1 1 18.472 -1.9174z" fill="url(#a)" filter="url(#c)"/>
  </g>
  <g transform="matrix(.65246 0 0 .65246 372.57 219.62)">
   <path d="m294.9-224.59a9.2361 4.618 0 1 1 -18.472 1.9174 9.2361 4.618 0 1 1 18.472 -1.9174z" filter="url(#d)"/>
   <path d="m294.9-223.88a9.2361 4.618 0 1 1 -18.472 1.9174 9.2361 4.618 0 1 1 18.472 -1.9174z" fill="url(#b)"/>
   <path d="m294.9-223.88a9.2361 4.618 0 1 1 -18.472 1.9174 9.2361 4.618 0 1 1 18.472 -1.9174z" fill="url(#a)" filter="url(#c)"/>
  </g>
  <g transform="matrix(.50734 0 0 .50734 407.93 341.82)">
   <path d="m264.85-455.87a9.2361 4.618 0 1 1 -18.472 1.9174 9.2361 4.618 0 1 1 18.472 -1.9174z" filter="url(#d)"/>
   <path d="m264.85-455.15a9.2361 4.618 0 1 1 -18.472 1.9174 9.2361 4.618 0 1 1 18.472 -1.9174z" fill="url(#b)"/>
   <path d="m264.85-455.15a9.2361 4.618 0 1 1 -18.472 1.9174 9.2361 4.618 0 1 1 18.472 -1.9174z" fill="url(#a)" filter="url(#c)"/>
  </g>
  <g transform="matrix(.53662 0 0 .53662 316.76 348.83)">
   <path d="m272.22-399.13a9.2361 4.618 0 1 1 -18.472 1.9174 9.2361 4.618 0 1 1 18.472 -1.9174z" filter="url(#d)"/>
   <path d="m272.22-398.42a9.2361 4.618 0 1 1 -18.472 1.9174 9.2361 4.618 0 1 1 18.472 -1.9174z" fill="url(#b)"/>
   <path d="m272.22-398.42a9.2361 4.618 0 1 1 -18.472 1.9174 9.2361 4.618 0 1 1 18.472 -1.9174z" fill="url(#a)" filter="url(#c)"/>
  </g>
  <g transform="matrix(.498 0 0 .498 77.496 403.23)">
   <path d="m262.32-475.36a9.2361 4.618 0 1 1 -18.472 1.9174 9.2361 4.618 0 1 1 18.472 -1.9174z" filter="url(#d)"/>
   <path d="m262.32-474.65a9.2361 4.618 0 1 1 -18.472 1.9174 9.2361 4.618 0 1 1 18.472 -1.9174z" fill="url(#b)"/>
   <path d="m262.32-474.65a9.2361 4.618 0 1 1 -18.472 1.9174 9.2361 4.618 0 1 1 18.472 -1.9174z" fill="url(#a)" filter="url(#c)"/>
  </g>
  <g transform="matrix(.6481 0 0 .6481 -53.761 306.15)">
   <path d="m294.2-230.04a9.2361 4.618 0 1 1 -18.472 1.9174 9.2361 4.618 0 1 1 18.472 -1.9174z" filter="url(#d)"/>
   <path d="m294.2-229.32a9.2361 4.618 0 1 1 -18.472 1.9174 9.2361 4.618 0 1 1 18.472 -1.9174z" fill="url(#b)"/>
   <path d="m294.2-229.32a9.2361 4.618 0 1 1 -18.472 1.9174 9.2361 4.618 0 1 1 18.472 -1.9174z" fill="url(#a)" filter="url(#c)"/>
  </g>
  <g transform="matrix(.96139 0 0 .96139 -193.27 84.402)">
   <path d="m328.66 35.201a9.2361 4.618 0 1 1 -18.472 1.9174 9.2361 4.618 0 1 1 18.472 -1.9174z" filter="url(#d)"/>
   <path d="m328.66 35.915a9.2361 4.618 0 1 1 -18.472 1.9174 9.2361 4.618 0 1 1 18.472 -1.9174z" fill="url(#b)"/>
   <path d="m328.66 35.915a9.2361 4.618 0 1 1 -18.472 1.9174 9.2361 4.618 0 1 1 18.472 -1.9174z" fill="url(#a)" filter="url(#c)"/>
  </g>
  <g transform="matrix(.80692 0 0 .80692 -34.348 134.01)">
   <path d="m315.01-69.832a9.2361 4.618 0 1 1 -18.472 1.9174 9.2361 4.618 0 1 1 18.472 -1.9174z" filter="url(#d)"/>
   <path d="m315.01-69.118a9.2361 4.618 0 1 1 -18.472 1.9174 9.2361 4.618 0 1 1 18.472 -1.9174z" fill="url(#b)"/>
   <path d="m315.01-69.118a9.2361 4.618 0 1 1 -18.472 1.9174 9.2361 4.618 0 1 1 18.472 -1.9174z" fill="url(#a)" filter="url(#c)"/>
  </g>
  <g transform="matrix(.30492 0 0 .30492 297.15 513.24)">
   <path d="m175.17-1146.1a9.2361 4.618 0 1 1 -18.472 1.9175 9.2361 4.618 0 1 1 18.472 -1.9175z" filter="url(#d)"/>
   <path d="m175.17-1145.4a9.2361 4.618 0 1 1 -18.472 1.9175 9.2361 4.618 0 1 1 18.472 -1.9175z" fill="url(#b)"/>
   <path d="m175.17-1145.4a9.2361 4.618 0 1 1 -18.472 1.9175 9.2361 4.618 0 1 1 18.472 -1.9175z" fill="url(#a)" filter="url(#c)"/>
  </g>
  <path d="m461.46 104.85 330 457.14-691.43-2.8571 142.86-422.86c63.787-35.791 139.55-48.97 218.57-31.428z" fill="#fff" fill-rule="evenodd" filter="url(#j)" opacity=".51203" stroke="#000"/>
 </g>
</svg>
